<svg id="Layer_2" data-name="Layer 2" xmlns="http://www.w3.org/2000/svg" viewBox="0 0 494.69 260.82"><defs><style>.cls-1{fill:#fff;stroke:#1d1d1b;stroke-miterlimit:10;}</style></defs><title>biplane-icon</title><path class="cls-1" d="M156.36,238.67c-6.15-2.07-13-4.31-19.74-6.66a17.28,17.28,0,0,0-12.65.09c-3.3,1.37-3.93,3.86-1.17,6a35,35,0,0,0,9.26,5.31c7.41,2.76,15,4.93,22.48,7.58a6.07,6.07,0,0,1,3,3.25c1.18,3,2.08,6.37,5.56,6.93,4.48,0.72,8.87,2.12,13.69,1A52.25,52.25,0,0,1,192,260.58c6.18,0.38,12.29,2,18.43,3.09,8.22,1.45,16.47,1.92,24.62-.19,1.61-.42,2.91-2.07,4.35-3.15-1.5-.77-2.92-1.91-4.52-2.25-6.27-1.34-12.6-2.43-18.91-3.61,8.36-2.29,16.64-4.27,25-5.7,17.45-3,34.38-7.41,50-16.09a11,11,0,0,1,7.13-.8C330,239,362,246.22,393.86,253.45c20.05,4.54,40,9.86,60.8,9.47a241.72,241.72,0,0,0,30.43-2.18c5-.73,9.87-3.49,14.29-6.17,3.24-2,3-4.86-.28-6.89a34.88,34.88,0,0,0-9.17-3.92q-22-6-44.15-11.66c-2.35-.6-3.29-1.53-3.35-4.06-0.15-6.47-.67-12.94-1-19.41-0.08-1.6,0-3.22,0-4.94,1.3,0.09,2.14.16,3,.2,11.4,0.53,22.87,1.1,34-2.11a38.77,38.77,0,0,0,12.55-6.47c3.45-2.66,3-5.85-.59-8.34a35,35,0,0,0-8.64-4.27Q418.53,161.25,355.33,140c-11.68-4-23.8-7.08-34.85-12.38-52.5-25.2-104.71-51-157-76.63Q124.7,32,85.91,13.12C71.15,6,55.73,2.88,39.48,6.85,28.64,9.5,21.79,16.62,28.46,28A61.51,61.51,0,0,0,38.14,40.8c17,16.61,36.74,29.16,58.45,38.7q18.26,8,36.5,16.13c1.15,0.51,2.26,1.14,3.5,1.78L128.76,117c-12.48-5.3-24.41-10.63-36.54-15.45C79.43,96.43,66.7,90.94,53.48,87.3c-12.93-3.56-26.35-3.59-39,2.41C8,92.76,6,98.85,10,104.82a60.45,60.45,0,0,0,10.3,12.33,191.31,191.31,0,0,0,55,32.92c47.7,18.81,95.74,36.78,143.64,55.09,1.14,0.44,2.24,1,3.76,1.66l-37.93,28.45a58.61,58.61,0,0,0,.56-6.69c-0.23-5.35.07-10.85-1.16-16-1.43-5.93-7.46-7.66-12.19-3.77a28,28,0,0,0-7.49,9C161.4,224.37,159.18,231.33,156.36,238.67Z" transform="translate(-7.48 -4.6)"/><path class="cls-1" d="M243.5,159.67c0.15,1,.61,2.81.39,2.9-1.5.6-3.45,1.59-4.7,1.09-10.77-4.33-21.43-9-32.12-13.49-19.29-8.18-38.56-16.41-57.9-24.49-2.34-1-3-2-2.52-4.5,1.06-5.86,1.79-11.79,2.7-18.05,1.29,0.45,2.29.72,3.22,1.13q32,14.17,64,28.41a16.19,16.19,0,0,1,4.3,3.07c2.78,2.61,5.41,5.39,8.09,8.09Z" transform="translate(-7.48 -4.6)"/><path class="cls-1" d="M351.51,205.65c2.7-3.7,4.7-6.45,6.72-9.2,0.47-.64.89-1.7,1.48-1.82,4.54-.94,5.2-4.39,5.49-8,6.7,2.32,13.31,5,20.16,6.84,5,1.31,10.25,1.42,15.39,2.07a7.76,7.76,0,0,1,1.05.2L427,202.59c-2.69,6.71-5.39,13.7-8.38,20.57-0.28.64-2.45,1-3.54,0.68-14.6-3.76-29.16-7.65-43.73-11.5-5.32-1.41-10.68-2.68-15.95-4.27C353.85,207.59,352.51,206.29,351.51,205.65Z" transform="translate(-7.48 -4.6)"/><path class="cls-1" d="M292,164.38l-14.53,7.73c-0.84.45-1.93,0.66-2.51,1.33-3.32,3.84-6.77,2.84-10.8,1-11.34-5.06-12.14-5.43-16.84-11.89,4.75-3,9.46-6,14.23-8.86a3,3,0,0,1,2.27-.2C273,157,282.24,160.63,292,164.38Z" transform="translate(-7.48 -4.6)"/><path class="cls-1" d="M438.29,203.47l1.29,26.88-18.35-4.84c3-7.37,5.75-14.48,8.72-21.51a3.16,3.16,0,0,1,2.5-1.24A48.32,48.32,0,0,1,438.29,203.47Z" transform="translate(-7.48 -4.6)"/><path class="cls-1" d="M243.5,159.67L229,143.82,221.9,135l38.94,17.19c-5.07,3.15-9.61,6.08-14.3,8.74C245.94,161.23,244.53,160.11,243.5,159.67Z" transform="translate(-7.48 -4.6)"/><path class="cls-1" d="M140.67,99.36c3.7,0.5,4.68,2.12,4,5.42-1.14,5.69-1.83,11.47-2.77,17.66l-8.92-3.7Z" transform="translate(-7.48 -4.6)"/><path class="cls-1" d="M243.08,165.44c4.64-3.92,5.07,1.4,7,3Z" transform="translate(-7.48 -4.6)"/></svg>