<svg id="Layer_2" data-name="Layer 2" xmlns="http://www.w3.org/2000/svg" viewBox="0 0 190.13 150.57"><defs><style>.cls-1{fill:none;stroke:#010101;stroke-miterlimit:10;stroke-width:0.1px;}</style></defs><title>Glider_Icon</title><path class="cls-1" d="M206.25,345.27l1.25,8.88,81.33,65.5s6.17-3.17,7.75-2.5a11.06,11.06,0,0,1,2.5,1.42l33.67-14.92,14.08-19.25s-16.58-13.08-15.5-14.25S351.08,382,351.08,382s18.33,13.42,17.42,14.92S350,386.22,350,386.22l-8.33,15.5-42.25,25.67c36.17,32.33,87.92,64.92,87.92,64.92l5-2.42,0.75,1-8.75,4.83s-39.75-22-94.17-60.92c0,0-23.67,13.08-26.67,9.17s14.25-18.25,14.25-18.25l-74.67-69.42,0.75-11h2.42Z" transform="translate(-203.03 -345.22)"/></svg>