<svg id="Layer_2" data-name="Layer 2" xmlns="http://www.w3.org/2000/svg" viewBox="0 0 1022.28 433"><defs><style>.cls-1{fill:none;stroke:#020202;stroke-miterlimit:10;}</style></defs><title>helicopter-icon</title><path class="cls-1" d="M89.79,436.47a156,156,0,0,1,19.56-10.9c4.42-2,6.62-4.36,7.56-9.2,3.77-19.28,8-38.47,12.2-57.65,0.39-1.77,1.92-4.14,3.45-4.65a210.32,210.32,0,0,1,23.52-6.72C206.65,337,257.3,327,307.81,316.43c9.69-2,18.52-2.34,27.52,2,2.81,1.35,5.26,2.34,6.25,5.71,0.32,1.08,2.77,2.56,3.75,2.26,6.64-2,13.21-4.35,19.65-7a7.34,7.34,0,0,0,3.84-4.14c1.09-3.72,1.43-7.65,2.17-12,3.6-1,7-.06,9.86,4,6.18,8.67,13.61,16.54,19,25.66,5.8,9.86,13.5,15.3,24.66,15.91,7.82,0.43,15.66.35,23.49,0.6,4.88,0.15,9.76.48,14.92,0.75-2.35,5.83-4.3,11.1-6.63,16.19a8.35,8.35,0,0,1-3.81,3.51c-3.88,1.9-8,3.25-11.88,5.22-1.74.89-3,2.74-4.47,4.15,2,0.5,4,1.4,6.07,1.42,3.35,0,6.71-.52,11-0.91-2.59,5.69-5,10.26-6.77,15.06-1.69,4.54-4.51,8-8.95,9.45-8.64,2.89-17.3,6.09-26.22,7.71-13.09,2.38-26.12,4.75-38.61,9.42-1.08.4-1.75,1.9-2.61,2.88,1.06,0.76,2.21,2.26,3.17,2.15,8.4-1,16.89-1.66,25.1-3.52,13.63-3.08,27.29-6.32,40.56-10.64C467.31,403,495.57,393,523.9,383.22c12.12-4.19,24.16-8.61,36.27-12.85,5.54-1.94,8.17-.73,9.31,3.76l-28.11,11.73c4.82,5.1,4.82,5.11,10,3.36,6.63-2.24,13.21-4.62,19.89-6.66,1.44-.44,4-0.29,4.75.63,6.27,8,12.52,16,18.18,24.41,3.87,5.75,2.72,7.87-3.85,9.36-12.18,2.77-24.37,5.46-36.56,8.2-7.47,1.68-15,3.15-22.36,5.24-1.5.42-3.2,3.15-3.27,4.88-0.12,2.83,2.27,2.43,4.41,1.95,5-1.13,10.12-2,15.17-3.1,17.58-3.75,35.56-6.2,52.64-11.54,64-20,127.81-41,191.65-61.67,6.47-2.1,12.71-4.9,19-7.43,9.8-3.93,11.92-13.33,16.32-22.12-4.58-.12-8.23-0.6-10.42,3.39a31.21,31.21,0,0,1-18.76,15.46c-10,3-20.51,5-30.1,9.06-12,5.07-20.77,2.7-28.24-7.46-5.17-7-10.6-13.86-16.26-21.24,7.81-3.61,14.66-6.61,21.33-10,1.6-.81,2.57-2.87,3.83-4.35-1.91-.43-4-1.58-5.69-1.15-6.93,1.75-13.7,4.11-20.61,6-1.66.45-4,.45-5.36-0.41-9.82-6.24-17.62-15.86-31-17.23,3.15-5.78,8.48-5.54,12.85-7.8,1.27,3.77,3.54,3.93,6.52,2.29,2.39-1.32,5.59-1.52,5.66-5.41,0-.65,1.61-1.48,2.62-1.88,10.52-4.17,21-8.42,31.66-12.27a11.25,11.25,0,0,1,7.48.06c9.06,3.78,17.9,8.1,26.88,12.09,1.51,0.67,3.32.64,5,.94l0.36-1.35-25.49-17c1-.94,1.55-1.53,2.18-2a89.47,89.47,0,0,0,29.25-35.38c4.75-10.34.95-20.54-9.68-25-4.44-1.88-9.06-3.35-13.52-5.2a10.59,10.59,0,0,1-3.89-2.81c-5-5.95-9.5-12.45-15-18-15.2-15.31-33.08-25.62-55-27.7-5-.47-10-1.29-15.94-2.07l30-60.3-1.33-1.1a33.4,33.4,0,0,0-3.94,4.11c-7.7,11.28-15.28,22.65-22.93,34-4.68,6.91-12.43,9.35-18.88,13.69l-1.8-.55V99.17l-2.13,0c-0.12,1.68-.35,3.36-0.35,5,0,13.17,0,26.33,0,39.5,0,7.16-1.41,7.67-7.91,4.65s-13.17-6.53-20-7.14c-8.12-.72-16.52,1.28-24.76,2.38-4.64.62-9.2,1.81-14.3,2.84l2.45-11.31c-12.25-3.77-24.27-1.14-36.63-1.52L551.24,82.4c6,0,11.49-.11,16.93.09,1.12,0,2.39,1.07,3.25,2,4,4.18,8.4,3.84,11.87-.66,1.06-1.37,3.26-2.77,4.86-2.69,18,0.88,35.93,2,53.88,3.15q66.33,4.19,132.66,8.43,66.09,4.13,132.19,8.08c11.6,0.68,23.44,2.3,34.8.74,16.26-2.22,32.13-7.15,48.24-10.57,10.81-2.3,19.4-8.45,28-14.8,1.74-1.29,3.23-2.91,5.95-5.39l-440.28,1.8c1.63-3.93,0-5.56-2.85-6-2.1-.32-4.66-0.8-6.36.07-6.68,3.42-13.72,1.9-20.59,1.94-3.17,0-6.35-1.54-10.27-2.58l4.7-5.34-0.38-1.54c-5.88.33-11.77,0.58-17.65,1.05-1.33.11-2.61,1-4,1.57l2.6,4.08c-2.1.44-3.73,1.21-5.22,1-3.3-.46-6.52-1.47-9.79-2.16-1.78-.38-4.32.1-5.28-0.94-4.65-5-9.67-2.79-14.81-1.51a16.21,16.21,0,0,1-5.82.53C474.13,61,460.45,59,446.75,57.18Q380.89,48.47,315,39.82,222.44,27.55,129.86,15.17c-9-1.21-18-2.77-27-4.17" transform="translate(-2.84 -10.5)"/><path class="cls-1" d="M102.85,11c9,1.4,18,3,27,4.17Q222.43,27.56,315,39.82q65.85,8.73,131.72,17.36c13.7,1.81,27.38,3.78,41.09,5.54a16.21,16.21,0,0,0,5.82-.53c5.13-1.28,10.16-3.53,14.81,1.51,1,1,3.5.57,5.28,0.94,3.27,0.69,6.49,1.69,9.79,2.16,1.49,0.21,3.12-.56,5.22-1l-2.6-4.08c1.4-.57,2.67-1.46,4-1.57,5.87-.47,11.76-0.72,17.65-1.05l0.38,1.54L543.49,66c3.91,1,7.09,2.59,10.27,2.58,6.87,0,13.91,1.48,20.59-1.94,1.7-.87,4.26-0.38,6.36-0.07,2.88,0.44,4.48,2.06,2.85,6l440.28-1.8c-2.72,2.48-4.21,4.1-5.95,5.39-8.56,6.35-17.15,12.51-28,14.8-16.11,3.42-32,8.35-48.24,10.57-11.36,1.55-23.2-.06-34.8-0.74q-66.1-3.88-132.19-8.08Q708.36,88.54,642,84.27c-18-1.13-35.91-2.27-53.88-3.15-1.6-.08-3.8,1.32-4.86,2.69-3.47,4.49-7.86,4.84-11.87.66-0.86-.9-2.13-1.93-3.25-2-5.44-.2-10.89-0.09-16.93-0.09l4.28,51.19c12.36,0.38,24.38-2.24,36.63,1.52l-2.45,11.31c5.1-1,9.66-2.22,14.3-2.84,8.24-1.1,16.64-3.11,24.76-2.38,6.84,0.61,13.58,4.15,20,7.14s7.92,2.51,7.91-4.65c0-13.17-.05-26.33,0-39.5,0-1.68.23-3.36,0.35-5l2.13,0v45.61l1.8,0.55c6.44-4.34,14.2-6.79,18.88-13.69,7.66-11.31,15.24-22.68,22.93-34a33.4,33.4,0,0,1,3.94-4.11l1.33,1.1-30,60.3C684,155.74,689,156.56,694,157c22,2.07,39.85,12.39,55,27.7,5.47,5.51,9.93,12,15,18a10.59,10.59,0,0,0,3.89,2.81c4.46,1.85,9.08,3.31,13.52,5.2,10.62,4.51,14.43,14.71,9.68,25a89.47,89.47,0,0,1-29.25,35.38c-0.63.46-1.17,1.06-2.18,2l25.49,17-0.36,1.35c-1.67-.3-3.49-0.27-5-0.94-9-4-17.82-8.31-26.88-12.09a11.25,11.25,0,0,0-7.48-.06c-10.64,3.85-21.14,8.1-31.66,12.27-1,.4-2.61,1.22-2.62,1.88-0.07,3.89-3.27,4.1-5.66,5.41-3,1.64-5.25,1.48-6.52-2.29-4.36,2.26-9.69,2-12.85,7.8,13.37,1.37,21.16,11,31,17.23,1.35,0.86,3.7.85,5.36,0.41,6.91-1.85,13.68-4.21,20.61-6,1.69-.43,3.78.73,5.69,1.15-1.26,1.49-2.23,3.54-3.83,4.35-6.66,3.37-13.52,6.37-21.33,10,5.66,7.38,11.09,14.21,16.26,21.24,7.46,10.16,16.29,12.52,28.24,7.46,9.59-4.07,20.07-6,30.1-9.06A31.21,31.21,0,0,0,817,334.76c2.2-4,5.84-3.5,10.42-3.39-4.4,8.79-6.52,18.19-16.32,22.12-6.32,2.54-12.57,5.33-19,7.43-63.84,20.7-127.6,41.64-191.65,61.67-17.08,5.34-35.07,7.79-52.64,11.54-5,1.08-10.13,2-15.17,3.1-2.14.48-4.53,0.88-4.41-1.95,0.07-1.73,1.77-4.45,3.27-4.88,7.36-2.09,14.89-3.56,22.36-5.24,12.19-2.73,24.38-5.43,36.56-8.2,6.56-1.49,7.72-3.61,3.85-9.36-5.66-8.41-11.91-16.43-18.18-24.41-0.72-.92-3.31-1.07-4.75-0.63-6.69,2-13.27,4.42-19.89,6.66-5.18,1.75-5.19,1.74-10-3.36l28.11-11.73c-1.14-4.49-3.77-5.7-9.31-3.76C548.06,374.61,536,379,523.9,383.22,495.57,393,467.31,403,438.82,412.27c-13.27,4.33-26.93,7.56-40.56,10.64-8.22,1.86-16.71,2.55-25.1,3.52-1,.11-2.11-1.39-3.17-2.15,0.86-1,1.53-2.48,2.61-2.88,12.49-4.68,25.52-7,38.61-9.42,8.92-1.62,17.58-4.82,26.22-7.71,4.43-1.48,7.25-4.91,8.95-9.45,1.79-4.79,4.18-9.37,6.77-15.06-4.27.39-7.63,0.93-11,.91-2,0-4-.92-6.07-1.42,1.48-1.41,2.73-3.25,4.47-4.15,3.84-2,8-3.32,11.88-5.22a8.35,8.35,0,0,0,3.81-3.51c2.34-5.09,4.28-10.36,6.63-16.19-5.15-.26-10-0.59-14.92-0.75-7.83-.24-15.67-0.17-23.49-0.6-11.16-.61-18.86-6.05-24.66-15.91-5.36-9.11-12.79-17-19-25.66-2.89-4.06-6.26-5-9.86-4-0.74,4.37-1.08,8.31-2.17,12a7.34,7.34,0,0,1-3.84,4.14c-6.44,2.6-13,4.91-19.65,7-1,.3-3.43-1.17-3.75-2.26-1-3.37-3.44-4.36-6.25-5.71-9-4.33-17.83-4-27.52-2C257.3,327,206.65,337,156.09,347.35a210.32,210.32,0,0,0-23.52,6.72c-1.53.5-3.06,2.88-3.45,4.65-4.24,19.18-8.43,38.38-12.2,57.65-0.95,4.84-3.14,7.23-7.56,9.2a156,156,0,0,0-19.56,10.9c-2.4,1.52-4,4.32-5.94,6.53h-6l-0.58-2.54L99,427.12c-4.21-2-6.68-3.81-5.91-8.53,2-12,3.26-24.08,4.79-36.14,1.16-9.19,2.26-18.39,3.36-27.36l-6.24-3c1.25-2.08,2-4,3.33-5.39,3.56-3.62,3.23-7.23,1.56-11.73C89.73,307.68,80,280.21,69.91,252.87c-1.53-4.16-.61-7.26,1.59-10.7,1.52-2.36,2.08-5.32,3.49-7.77,0.88-1.52,2.56-2.59,3.87-3.86a23.29,23.29,0,0,1,2.6,3.62c0.46,1,.32,2.22.48,3.72,5-.75,6.12,3,7.72,6.22q17.74,36.11,35.56,72.17c1,2.11,2.42,5.19,4.18,5.62,5.2,1.26,10.86,2.57,16,1.71,7-1.17,13.57-4.39,20.36-6.61,8.65-2.83,17.33-5.54,26.43-8.43l-20.65-51.89c6.21-2,12-3.56,17.53-5.63,3.38-1.25,5-.19,6.75,2.69,8.05,13.23,16.43,26.27,24.46,39.52,2.48,4.09,5.18,5.3,9.87,3.85,43.26-13.4,86.6-26.56,129.85-40a58.16,58.16,0,0,0,13.74-6.73c6.9-4.41,8.63-15.26,4-22-2.36-3.43-4.81-6.79-7.2-10.2q-6.34-9.05-12.66-18.13l1.27-.94L385,233.27c5.1-8.2,9.57-15.49,14.17-22.71a8.65,8.65,0,0,1,2.86-2.51c1.91-1.15,4.11-1.88,5.91-3.17,5.66-4.1,11.11-8.49,16.78-12.58,7.66-5.53,15.45-10.89,23-16.17-1.67-2.31-4-4.15-4.14-6.11-0.11-2.19,1.27-5.72,3-6.5a57.49,57.49,0,0,1,15.37-4.62c4.15-.59,9,1.83,12.74.58,17.83-5.94,35.39-12.68,53.51-19.3l-2.12-60.85c-9.84,1.58-19-2.17-27.84,2.53-1.5.8-4.12-.2-6.13-0.72-3-.77-5.84-2.46-8.83-2.71-27.05-2.22-54.13-4.22-81.19-6.27q-52.56-4-105.12-7.93Q249.87,60.66,202.8,57c-28.23-2.14-56.47-4.17-84.7-6.3Q74.76,47.43,31.43,44c-9.18-.71-18.36-1.46-27.8-2.21a4.43,4.43,0,0,1,.74-1.42C21.21,34.23,37.91,27.6,55,22.11,68.7,17.69,82.88,14.65,96.85,11h6ZM583.21,378.46c8.09,9.9,15.86,19.21,23.38,28.72,2.1,2.65,3.92,3.11,7.16,2.06,34.48-11.26,69-22.33,103.55-33.48,7.89-2.55,15.74-5.18,24.14-7.95-8.16-11.28-15.88-22.1-23.86-32.74-0.7-.93-3.26-1.23-4.62-0.79-10.45,3.37-20.82,7-31.21,10.55Zm15.72-30.87c11.65-3.27,22.17-6.34,32.74-9.16,10.9-2.91,19.34-8.65,23.6-19.52,0.24-.61.6-1.56,1-1.64a33.42,33.42,0,0,1,7.51-.84c0.6,0,1.9,2.72,1.51,3.5-3.9,7.81-6.74,16.59-16.19,19.89-6.59,2.31-13.21,4.55-19.79,6.89-18,6.4-36,12.84-53.9,19.2,0.29,5.39,2.86,4.72,6.17,3.59q61.45-21,122.95-41.91c1.62-.55,3.2-1.23,5.85-2.27-5.94-5.19-10.44-10.84-16.3-13.73-5.41-2.67-12.3-2.33-18.52-3.4-7.56-1.31-13.76,2.5-20.46,4.91-16.6,6-33.38,11.48-50.14,17-2.75.91-4.15,2.28-4.4,5.18C600.29,338.91,599.65,342.49,598.93,347.59Zm-6-16.5a15.82,15.82,0,0,0-2.48.27Q529,353,467.53,374.67c-1.42.5-3.24,1.68-3.66,2.94-2.06,6.25-3.7,12.63-5.61,19.38a13.57,13.57,0,0,0,2.64-.17c13.75-4.56,27.63-8.77,41.19-13.82,26.67-9.93,53.19-20.29,79.72-30.61,2.2-.86,5-2.3,5.81-4.19C589.84,342.91,591.14,337.24,593,331.09ZM468.13,365.3l28.51-10.6C481.57,351.55,470.65,355.17,468.13,365.3Z" transform="translate(-2.84 -10.5)"/><path class="cls-1" d="M96.85,11C82.88,14.65,68.7,17.69,55,22.11,37.91,27.6,21.21,34.23,4.36,40.4a4.43,4.43,0,0,0-.74,1.42c9.44,0.75,18.62,1.5,27.8,2.21q43.33,3.36,86.67,6.68c28.23,2.14,56.47,4.17,84.7,6.3q47.08,3.56,94.15,7.23,52.56,4,105.12,7.93c27.07,2,54.14,4,81.19,6.27,3,0.25,5.85,1.94,8.83,2.71,2,0.52,4.63,1.52,6.13.72,8.81-4.69,18-.94,27.84-2.53l2.12,60.85c-18.12,6.62-35.68,13.36-53.51,19.3-3.76,1.25-8.59-1.17-12.74-.58a57.49,57.49,0,0,0-15.37,4.62c-1.72.78-3.1,4.31-3,6.5,0.1,2,2.47,3.8,4.14,6.11-7.52,5.28-15.31,10.64-23,16.17-5.67,4.09-11.12,8.48-16.78,12.58-1.79,1.3-4,2-5.91,3.17a8.65,8.65,0,0,0-2.86,2.51c-4.59,7.22-9.07,14.51-14.17,22.71L359.11,199l-1.27.94q6.33,9.06,12.66,18.13c2.39,3.41,4.84,6.78,7.2,10.2,4.68,6.79,3,17.63-4,22A58.16,58.16,0,0,1,360,257.09c-43.25,13.45-86.58,26.61-129.85,40-4.69,1.45-7.39.24-9.87-3.85-8-13.25-16.4-26.28-24.46-39.52-1.75-2.88-3.37-3.95-6.75-2.69-5.57,2.07-11.32,3.66-17.53,5.63l20.65,51.89c-9.1,2.9-17.78,5.61-26.43,8.43-6.8,2.22-13.4,5.44-20.36,6.61-5.12.86-10.78-.45-16-1.71-1.76-.42-3.13-3.5-4.18-5.62q-17.87-36-35.56-72.17c-1.61-3.27-2.77-7-7.72-6.22-0.17-1.5,0-2.76-.48-3.72a23.29,23.29,0,0,0-2.6-3.62c-1.32,1.27-3,2.33-3.87,3.86-1.42,2.45-2,5.41-3.49,7.77-2.21,3.44-3.13,6.55-1.59,10.7C80,280.21,89.73,307.68,99.84,335c1.67,4.51,2,8.12-1.56,11.73-1.34,1.36-2.07,3.3-3.33,5.39l6.24,3c-1.1,9-2.2,18.17-3.36,27.36C96.31,394.51,95,406.6,93,418.59c-0.77,4.72,1.7,6.5,5.91,8.53L77.28,440.46,77.85,443" transform="translate(-2.84 -10.5)"/><path class="cls-1" d="M583.21,378.46l98.54-33.62c10.4-3.55,20.76-7.18,31.21-10.55,1.36-.44,3.92-0.15,4.62.79,8,10.63,15.7,21.45,23.86,32.74-8.4,2.77-16.26,5.4-24.14,7.95C682.79,386.9,648.24,398,613.76,409.24c-3.24,1.06-5.07.59-7.16-2.06C599.07,397.67,591.31,388.35,583.21,378.46Z" transform="translate(-2.84 -10.5)"/><path class="cls-1" d="M598.93,347.59c0.71-5.1,1.35-8.68,1.67-12.29,0.25-2.91,1.65-4.28,4.4-5.18,16.76-5.54,33.54-11,50.14-17,6.7-2.41,12.9-6.22,20.46-4.91,6.22,1.07,13.1.73,18.52,3.4,5.86,2.89,10.36,8.54,16.3,13.73-2.66,1-4.23,1.72-5.85,2.27q-61.48,20.95-122.95,41.91c-3.31,1.13-5.88,1.8-6.17-3.59,17.87-6.37,35.88-12.8,53.9-19.2,6.58-2.34,13.2-4.58,19.79-6.89,9.45-3.3,12.29-12.08,16.19-19.89,0.39-.78-0.91-3.48-1.51-3.5a33.42,33.42,0,0,0-7.51.84c-0.43.08-.79,1-1,1.64-4.26,10.88-12.7,16.61-23.6,19.52C621.1,341.25,610.59,344.32,598.93,347.59Z" transform="translate(-2.84 -10.5)"/><path class="cls-1" d="M593,331.09c-1.85,6.14-3.15,11.82-5.36,17.11-0.79,1.9-3.61,3.34-5.81,4.19-26.53,10.32-53,20.68-79.72,30.61-13.57,5.05-27.45,9.26-41.19,13.82a13.57,13.57,0,0,1-2.64.17c1.91-6.76,3.56-13.14,5.61-19.38,0.42-1.26,2.23-2.44,3.66-2.94q61.45-21.75,123-43.31A15.82,15.82,0,0,1,593,331.09Z" transform="translate(-2.84 -10.5)"/><path class="cls-1" d="M468.13,365.3c2.52-10.13,13.44-13.76,28.51-10.6Z" transform="translate(-2.84 -10.5)"/></svg>