<svg id="Layer_2" data-name="Layer 2" xmlns="http://www.w3.org/2000/svg" viewBox="0 0 561.12 192.21"><defs><style>.cls-1{fill:none;stroke:#000;stroke-miterlimit:10;}</style></defs><title>plane_icon</title><path class="cls-1" d="M259,155.83c-8.42.87-15.62,1.5-22.79,2.38-15.23,1.87-30.44,3.91-45.67,5.81q-23.39,2.93-46.79,5.74c-18.07,2.15-36.16,4.15-54.22,6.34-13.27,1.61-26.56,3.13-39.75,5.27-5.61.91-10.62,0.87-15.82-1.63-4.2-2-8.8-3.23-13.41-4.86-0.06,6.31,3.35,10.33,10.31,11.72,17.77,3.54,35,10.33,53.39,9.28,1.4,5,4,6.1,11.26,4.45-1.3-.6-2.08-0.88-2.78-1.31-0.93-.56-1.79-1.24-2.68-1.87a11.79,11.79,0,0,1,2.8-1.21c3.09-.46,6.21-0.79,9.32-1.08,7.91-.73,15.83-1.36,23.74-2.13,16.16-1.56,32.3-3.25,48.46-4.77,12.36-1.17,24.74-2.08,37.1-3.25,15.81-1.5,31.61-3.22,47.42-4.73q18-1.73,36.11-3.2c16.1-1.33,32-3.75,48.39-3.39,19,0.41,37.82,3.88,56.85,3.28a3.47,3.47,0,0,0,.49.08c9.21-1.87,17.92,3.86,27.4,1.36,6.63-1.75,13.91-1,20.62-2.52,5.68-1.31,13.41.61,15.94-7.67a2.61,2.61,0,0,1,1.72-.91c3.66-.84,7.35-2.32,11-2.23,6.58,0.16,12.84-.26,18.71-3.52,5.44-3,6.81-9,2.75-13.61-1.73-2-4.08-3.36-6-5.17-3.23-3.07-6.33-6.27-9.86-9.78l63.43-21.56c1.4,4.88,8,7,13.42,4.32l-8.77-1.8-0.7-1.22c1.61-1.16,3.06-2.7,4.85-3.4,7.2-2.83,14.53-5.31,21.73-8.15,1.5-.59,3.48-2,3.67-3.32s-1.46-3.08-2.76-4C573,90,567.69,87.84,561.37,87.93c-3.65.05-7.35-1.23-11-2.07-4.55-1.06-9-2.29-13.65-3.47-1,5.73-3.86,8.4-8.13,9.6Q486.31,103.84,444,115.55c-4.62,1.27-9.7,3.1-14.15,2.32-10.49-1.85-20.77-5-31.06-7.88-4.54-1.28-9.85-2.2-13.11-5.15-10-9-22.05-13.76-34.09-18.73s-24.25-8.27-37.19-6.55c-14.24,1.89-28.3,5.32-42.57,6.83-10.69,1.13-21.1,4.69-32.59-.43-7.61-3.39-17.65-2.17-26.52-1.61S198.31,80.51,193.78,74c-10.25-14.65-20.29-29.45-30.48-44.15-2.81-4.05-5.46-8.31-8.81-11.88-8.13-8.67-18.9-8.67-29.59-7.74-3.29.29-5.35,2.27-4.19,6.65,5.24,19.74,10,39.61,15.19,59.36,1.41,5.36.43,12,8.31,15l-87.61,15-0.18,1.43c6.66,2,13.27,4.27,20,6.05a24.62,24.62,0,0,0,8.83.68c18.61-2.09,37.18-4.49,55.78-6.6,8.89-1,9.41-1,12.74,7.75,1.83,4.8,4.44,5.22,8.82,5.53,9.37,0.66,19,1.2,27.93,3.75,11.72,3.34,22.81,8.84,34.35,12.9C236.8,142,247.48,148.35,259,155.83Z" transform="translate(-20.08 -9.36)"/><path class="cls-1" d="M259,155.83c-11.56-7.48-22.23-13.81-34.17-18-11.54-4.06-22.63-9.56-34.35-12.9-9-2.55-18.56-3.09-27.93-3.75-4.38-.31-7-0.73-8.82-5.53-3.33-8.75-3.85-8.76-12.74-7.75-18.6,2.1-37.17,4.51-55.78,6.6a24.62,24.62,0,0,1-8.83-.68c-6.73-1.78-13.34-4-20-6.05l0.18-1.43,87.61-15c-7.88-3-6.9-9.67-8.31-15-5.19-19.75-10-39.62-15.19-59.36-1.16-4.38.9-6.37,4.19-6.65,10.7-.93,21.46-0.93,29.59,7.74,3.35,3.57,6,7.83,8.81,11.88,10.19,14.7,20.23,29.5,30.48,44.15,4.53,6.48,9.94,10.88,18.92,10.32s18.92-1.78,26.52,1.61c11.49,5.12,21.9,1.56,32.59.43,14.27-1.51,28.33-4.94,42.57-6.83,12.94-1.72,25.29,1.64,37.19,6.55s24.12,9.7,34.09,18.73c3.27,3,8.58,3.87,13.11,5.15,10.28,2.9,20.57,6,31.06,7.88,4.45,0.78,9.53-1,14.15-2.32Q486.34,103.92,528.6,92c4.27-1.2,7.17-3.87,8.13-9.6,4.6,1.18,9.11,2.41,13.65,3.47,3.64,0.85,7.33,2.12,11,2.07,6.33-.09,11.65,2.1,16.55,5.63,1.3,0.93,2.94,2.81,2.76,4s-2.16,2.73-3.67,3.32c-7.19,2.84-14.53,5.32-21.73,8.15-1.79.7-3.24,2.25-4.85,3.4l0.7,1.22,8.77,1.8c-5.41,2.72-12,.55-13.42-4.32L483.07,132.7c3.52,3.51,6.63,6.71,9.86,9.78,1.91,1.82,4.26,3.21,6,5.17,4.05,4.61,2.69,10.59-2.75,13.61-5.87,3.26-12.13,3.68-18.71,3.52-3.65-.09-7.34,1.4-11,2.23a2.61,2.61,0,0,0-1.72.91c-2.53,8.28-10.26,6.36-15.94,7.67-6.71,1.55-14,.77-20.62,2.52-9.48,2.51-18.19-3.23-27.4-1.36a3.47,3.47,0,0,1-.49-0.08c-19,.6-37.82-2.87-56.85-3.28-16.4-.36-32.29,2.07-48.39,3.39Q277,178.28,258.93,180c-15.81,1.52-31.61,3.23-47.42,4.73-12.36,1.18-24.74,2.09-37.1,3.25-16.16,1.52-32.3,3.21-48.46,4.77-7.91.77-15.83,1.39-23.74,2.13-3.11.29-6.23,0.62-9.32,1.08a11.79,11.79,0,0,0-2.8,1.21c0.89,0.63,1.75,1.31,2.68,1.87,0.7,0.43,1.49.71,2.78,1.31-7.27,1.65-9.87.59-11.26-4.45-18.42,1-35.62-5.74-53.39-9.28-7-1.39-10.37-5.41-10.31-11.72,4.62,1.64,9.21,2.84,13.41,4.86,5.2,2.5,10.21,2.54,15.82,1.63,13.19-2.14,26.48-3.66,39.75-5.27,18.06-2.19,36.15-4.19,54.22-6.34q23.4-2.79,46.79-5.74c15.23-1.91,30.44-3.94,45.67-5.81C243.42,157.33,250.62,156.7,259,155.83Z" transform="translate(-20.08 -9.36)"/></svg>